<svg width="106" height="18" viewBox="0 0 106 18" fill="none" xmlns="http://www.w3.org/2000/svg">
<path d="M8.20813 1.46352C8.35781 1.00287 9.00951 1.00287 9.15919 1.46353L10.521 5.65477C10.5879 5.86078 10.7799 6.00026 10.9965 6.00026H15.4035C15.8878 6.00026 16.0892 6.62007 15.6974 6.90477L12.1321 9.4951C11.9568 9.62242 11.8835 9.84811 11.9504 10.0541L13.3123 14.2454C13.4619 14.706 12.9347 15.0891 12.5428 14.8044L8.97755 12.214C8.80231 12.0867 8.56501 12.0867 8.38977 12.214L4.82448 14.8044C4.43262 15.0891 3.90539 14.706 4.05506 14.2454L5.41688 10.0541C5.48382 9.84811 5.41049 9.62242 5.23524 9.4951L1.66996 6.90477C1.2781 6.62007 1.47949 6.00026 1.96385 6.00026H6.37079C6.5874 6.00026 6.77938 5.86078 6.84631 5.65477L8.20813 1.46352Z" fill="#F6C644"/>
<path d="M30.3663 1.46352C30.516 1.00287 31.1677 1.00287 31.3173 1.46353L32.6791 5.65477C32.7461 5.86078 32.9381 6.00026 33.1547 6.00026H37.5616C38.046 6.00026 38.2474 6.62007 37.8555 6.90477L34.2902 9.4951C34.115 9.62242 34.0416 9.84811 34.1086 10.0541L35.4704 14.2454C35.6201 14.706 35.0928 15.0891 34.701 14.8044L31.1357 12.214C30.9605 12.0867 30.7232 12.0867 30.5479 12.214L26.9826 14.8044C26.5908 15.0891 26.0635 14.706 26.2132 14.2454L27.575 10.0541C27.642 9.84811 27.5686 9.62242 27.3934 9.4951L23.8281 6.90477C23.4362 6.62007 23.6376 6.00026 24.122 6.00026H28.5289C28.7455 6.00026 28.9375 5.86078 29.0045 5.65477L30.3663 1.46352Z" fill="#F6C644"/>
<path d="M52.5245 1.46352C52.6742 1.00287 53.3259 1.00287 53.4755 1.46353L54.8374 5.65477C54.9043 5.86078 55.0963 6.00026 55.3129 6.00026H59.7198C60.2042 6.00026 60.4056 6.62007 60.0137 6.90477L56.4484 9.4951C56.2732 9.62242 56.1998 9.84811 56.2668 10.0541L57.6286 14.2454C57.7783 14.706 57.251 15.0891 56.8592 14.8044L53.2939 12.214C53.1187 12.0867 52.8814 12.0867 52.7061 12.214L49.1408 14.8044C48.749 15.0891 48.2217 14.706 48.3714 14.2454L49.7332 10.0541C49.8002 9.84811 49.7268 9.62242 49.5516 9.4951L45.9863 6.90477C45.5944 6.62007 45.7958 6.00026 46.2802 6.00026H50.6871C50.9037 6.00026 51.0957 5.86078 51.1627 5.65477L52.5245 1.46352Z" fill="#F6C644"/>
<path d="M74.6826 1.46352C74.8323 1.00287 75.484 1.00287 75.6337 1.46353L76.9955 5.65477C77.0624 5.86078 77.2544 6.00026 77.471 6.00026H81.878C82.3623 6.00026 82.5637 6.62007 82.1719 6.90477L78.6066 9.4951C78.4313 9.62242 78.358 9.84811 78.4249 10.0541L79.7867 14.2454C79.9364 14.706 79.4092 15.0891 79.0173 14.8044L75.452 12.214C75.2768 12.0867 75.0395 12.0867 74.8643 12.214L71.299 14.8044C70.9071 15.0891 70.3799 14.706 70.5295 14.2454L71.8914 10.0541C71.9583 9.84811 71.885 9.62242 71.7097 9.4951L68.1444 6.90477C67.7526 6.62007 67.954 6.00026 68.4383 6.00026H72.8453C73.0619 6.00026 73.2539 5.86078 73.3208 5.65477L74.6826 1.46352Z" fill="#F6C644"/>
<path d="M96.8409 1.46352C96.9906 1.00287 97.6423 1.00287 97.792 1.46353L99.1538 5.65477C99.2208 5.86078 99.4127 6.00026 99.6293 6.00026H104.036C104.521 6.00026 104.722 6.62007 104.33 6.90477L100.765 9.4951C100.59 9.62242 100.516 9.84811 100.583 10.0541L101.945 14.2454C102.095 14.706 101.568 15.0891 101.176 14.8044L97.6104 12.214C97.4351 12.0867 97.1978 12.0867 97.0226 12.214L93.4573 14.8044C93.0654 15.0891 92.5382 14.706 92.6879 14.2454L94.0497 10.0541C94.1166 9.84811 94.0433 9.62242 93.8681 9.4951L90.3028 6.90477C89.9109 6.62007 90.1123 6.00026 90.5967 6.00026H95.0036C95.2202 6.00026 95.4122 5.86078 95.4791 5.65477L96.8409 1.46352Z" fill="#F6C644"/>
</svg>
