<svg width="147" height="22" viewBox="0 0 147 22" fill="none" xmlns="http://www.w3.org/2000/svg">
<g clip-path="url(#clip0_0_1456)">
<path d="M18.7505 3.21393C18.5105 3.21312 18.2728 3.25936 18.0509 3.34998C17.8291 3.44061 17.6275 3.57382 17.4578 3.74197C17.2881 3.91011 17.1537 4.10985 17.0622 4.32968C16.9708 4.54955 16.9241 4.78512 16.9249 5.02294V14.9663C16.9241 15.2041 16.9708 15.4397 17.0622 15.6596C17.1537 15.8794 17.2881 16.0791 17.4578 16.2473C17.6275 16.4154 17.8291 16.5487 18.0509 16.6393C18.2728 16.7299 18.5105 16.7761 18.7505 16.7753V17.2266H11.4419V16.7753C11.9256 16.7743 12.3891 16.5833 12.7309 16.2441C13.0727 15.9051 13.2649 15.4456 13.2654 14.9663V6.70331L9.94396 17.2266H6.23506L2.91972 6.70331V14.9663C2.9208 15.4447 3.11264 15.9033 3.45344 16.2421C3.79423 16.581 4.25637 16.7726 4.73915 16.7753V17.2266H0V16.7753C0.483845 16.7743 0.947562 16.5833 1.28969 16.2443C1.63182 15.9053 1.82451 15.4458 1.8256 14.9663V5.02294C1.8256 4.04696 1.1683 3.34051 0 3.21393V2.7627H7.29826V3.21393C6.2948 3.21393 5.73022 4.03063 6.0393 5.02294L9.36083 15.5829L12.7009 5.02294C13.0285 3.97346 12.3898 3.21393 11.4419 3.21393V2.7627H18.7505V3.21393Z" fill="#213786"/>
<path d="M30.3077 15.0395C29.9245 16.6729 29.0714 17.4631 27.4436 17.4631C26.3124 17.4631 25.4738 16.6851 25.2183 15.6541C24.3241 16.7199 23.3391 17.4447 21.9874 17.4447C20.3102 17.4447 19.3418 16.5218 19.3418 15.0211C19.3418 12.2505 23.7574 12.0013 25.1379 11.5685V10.2087C25.1379 7.11746 21.3611 7.56868 22.074 9.41444C22.158 9.57034 22.227 9.7337 22.28 9.90241C22.3069 10.0568 22.3027 10.2148 22.2677 10.3676C22.2326 10.5203 22.1675 10.6647 22.076 10.7924C21.9844 10.9201 21.8683 11.0286 21.7343 11.1117C21.6003 11.1948 21.451 11.2508 21.2951 11.2765C21.0527 11.3071 20.8063 11.2729 20.5817 11.1774C20.3571 11.0819 20.1623 10.9286 20.0176 10.7334C19.8894 10.5413 19.8037 10.3244 19.766 10.0971C19.7284 9.86975 19.7397 9.63711 19.7992 9.41444C20.4359 7.04599 24.561 6.41303 26.879 7.89536C27.864 8.52831 28.3379 9.63086 28.3379 11.0601V14.0982C28.3379 16.6851 29.671 16.1053 30.217 15.0027L30.3077 15.0395ZM25.1379 14.9496V12.2178C23.5699 12.9242 22.5293 13.5388 22.5293 14.4433C22.5293 15.2927 23.0218 15.9072 23.9161 15.799C24.2313 15.7623 24.6887 15.4376 25.1379 14.9496Z" fill="#213786"/>
<path d="M37.3717 7.30158C39.2261 7.84265 40.1265 9.2535 40.1265 10.6827C40.1265 12.5203 38.6306 14.3171 35.546 14.3171C35.0956 14.3224 34.6459 14.28 34.2046 14.1905C32.6902 15.1848 33.6751 15.7259 34.1305 15.7994C35.3895 16.0036 36.8503 15.9627 37.7446 16.0342C39.6238 16.1791 40.8456 16.8305 40.9198 18.4578C41.0475 20.8609 38.3277 22.0002 35.4265 22.0002C32.0144 22.0002 31.0645 20.9344 30.8934 20.1381C30.6194 19.054 31.2396 18.078 32.1709 18.1495C32.3296 18.1575 32.4851 18.1968 32.6283 18.265C32.7715 18.3333 32.8994 18.4292 33.0048 18.5471C33.1101 18.6649 33.1907 18.8024 33.2417 18.9515C33.2928 19.1006 33.3133 19.2583 33.3022 19.4153C33.2784 19.5903 33.2291 19.7608 33.1559 19.9217C32.8818 20.5179 33.0096 21.6041 35.546 21.6041C37.553 21.6041 38.8305 20.2831 38.7769 19.4705C38.6842 18.2209 36.8792 18.4026 35.5275 18.3475C34.2685 18.2944 32.7912 18.3312 31.8186 17.6615C31.5722 17.5098 31.3748 17.2913 31.2498 17.0318C31.1249 16.7723 31.0778 16.4828 31.1139 16.1975C31.2417 15.293 32.2451 14.4967 33.23 13.9005C31.7341 13.2492 31.0233 12.0017 31.0233 10.6991C31.0233 8.86147 32.5006 7.06471 35.5852 7.06471C36.0261 7.0588 36.4663 7.10125 36.8977 7.19132C37.928 6.14391 39.1251 5.61914 40.0544 5.61914C41.2783 5.61914 41.9088 6.88505 41.1692 7.64456C40.6025 8.20401 39.7268 8.05294 39.3806 7.24645C39.1499 6.79519 38.5028 6.30722 37.3717 7.30158ZM36.9596 10.6827C36.9596 9.0187 36.5763 7.96921 35.5914 7.96921C34.6065 7.96921 34.2232 8.9901 34.2232 10.6643C34.2232 12.3386 34.6044 13.4126 35.5914 13.4126C36.5784 13.4126 36.9513 12.3631 36.9513 10.6827H36.9596Z" fill="#213786"/>
<path d="M56.5662 14.2436L56.7288 14.3171C56.055 16.2507 54.3942 17.4267 52.6079 17.4267C49.7069 17.4267 47.5906 15.2747 47.5906 12.3631C47.5673 10.9952 48.0918 9.67384 49.0491 8.68789C50.0063 7.7019 51.3181 7.13159 52.6985 7.10152C55.1978 6.99333 56.6589 7.89783 56.9328 9.30868C56.9721 9.5421 56.963 9.78095 56.9061 10.0108C56.8496 10.2407 56.7465 10.4567 56.6033 10.646C56.4587 10.8333 56.2642 10.9767 56.0416 11.0597C55.819 11.1427 55.5775 11.1621 55.3441 11.1157C55.0356 11.0414 54.7691 10.8499 54.6017 10.5825C54.4343 10.3151 54.38 9.99327 54.4498 9.68639C54.499 9.51 54.5797 9.34392 54.6893 9.19639C55.2906 8.20204 53.9577 7.75082 52.9004 8.14898C52.2434 8.38378 50.8009 9.21477 50.8009 11.8017C50.8009 14.1334 51.9876 15.8341 53.9227 15.7606C54.9425 15.7219 55.9458 15.3645 56.5662 14.2436Z" fill="#213786"/>
<path d="M76.2546 3.21393C76.0147 3.21312 75.777 3.25936 75.5553 3.34998C75.3332 3.44061 75.1317 3.57382 74.9622 3.74197C74.7922 3.91011 74.6581 4.10985 74.5666 4.32968C74.4752 4.54955 74.4281 4.78512 74.429 5.02294V14.9663C74.4281 15.2041 74.4752 15.4397 74.5666 15.6596C74.6581 15.8794 74.7922 16.0791 74.9622 16.2473C75.1317 16.4154 75.3332 16.5487 75.5553 16.6393C75.777 16.7299 76.0147 16.7761 76.2546 16.7753V17.2266H68.9566V16.7753C69.4402 16.7743 69.9035 16.5833 70.2455 16.2441C70.5872 15.9051 70.7796 15.4456 70.78 14.9663V6.70331L67.4606 17.2266H63.7517L60.4344 6.70331V14.9663C60.4353 15.4458 60.6281 15.9053 60.9702 16.2443C61.3122 16.5833 61.776 16.7743 62.26 16.7753V17.2266H57.5209V16.7753C58.0041 16.7732 58.4665 16.5817 58.8077 16.2429C59.1489 15.904 59.3413 15.4451 59.3422 14.9663V5.02294C59.3422 4.04696 58.6848 3.34051 57.5166 3.21393V2.7627H64.8167V3.21393C63.8112 3.21393 63.247 4.03063 63.5558 5.02294L66.8774 15.5829L70.2154 5.02294C70.5432 3.97346 69.9043 3.21393 68.9566 3.21393V2.7627H76.2546V3.21393Z" fill="#213786"/>
<path d="M87.8244 15.0395C87.4413 16.6729 86.5881 17.4631 84.9584 17.4631C83.8269 17.4631 82.9883 16.6851 82.7329 15.6541C81.8387 16.7199 80.8538 17.4447 79.5019 17.4447C77.8248 17.4447 76.8563 16.5218 76.8563 15.0211C76.8563 12.2545 81.2718 12.0013 82.6587 11.5685V10.2087C82.6587 7.11746 78.882 7.56868 79.5947 9.41444C79.6788 9.57034 79.7478 9.7337 79.8009 9.90241C79.8276 10.0568 79.8233 10.2148 79.7884 10.3676C79.7534 10.5203 79.6883 10.6647 79.5968 10.7924C79.5054 10.9201 79.3889 11.0286 79.2552 11.1117C79.121 11.1948 78.9718 11.2508 78.816 11.2765C78.5736 11.3071 78.3273 11.2729 78.1026 11.1774C77.8778 11.0819 77.6833 10.9286 77.5383 10.7334C77.4102 10.5413 77.3244 10.3244 77.2868 10.0971C77.2493 9.86975 77.2605 9.63711 77.32 9.41444C77.9589 7.04599 82.082 6.41303 84.3997 7.89536C85.3846 8.52831 85.8586 9.63086 85.8586 11.0601V14.0982C85.8586 16.6851 87.192 16.1053 87.7377 15.0027L87.8244 15.0395ZM82.6587 14.9496V12.2178C81.0907 12.9242 80.0502 13.5388 80.0502 14.4433C80.0502 15.2927 80.5424 15.9072 81.4371 15.799C81.7481 15.7623 82.2135 15.4376 82.6587 14.9496Z" fill="#213786"/>
<path d="M96.8215 14.2618C96.8215 16.4138 94.5753 17.5286 92.4223 17.5715C90.652 17.5899 88.9377 16.8651 88.5546 15.346C88.3178 14.4252 88.9192 13.4492 89.8505 13.5574C90.6748 13.6656 91.054 14.4436 90.652 15.2562C90.2154 16.1791 91.3094 16.5935 92.4409 16.5935C93.3351 16.5935 94.4476 16.1055 94.4476 15.2378C94.4476 14.2169 92.8239 13.7922 91.1507 13.2491C89.4778 12.706 88.6267 11.6382 88.6267 10.2293C88.6267 7.71591 90.8543 7.06458 92.6592 7.04828C94.3941 7.0299 96.0364 7.60772 96.3452 8.91034C96.5639 9.81484 95.9622 10.8092 95.033 10.6826C94.2294 10.5907 93.8273 9.81484 94.2294 9.00019C94.9403 7.53624 90.8892 7.68123 90.8892 9.20436C90.8892 9.85569 91.1446 9.87407 94.4476 11.0848C96.0899 11.6769 96.8215 12.9429 96.8215 14.2618Z" fill="#213786"/>
<path d="M106.162 14.2618C106.162 16.4138 103.916 17.5286 101.763 17.5715C99.9932 17.5899 98.2785 16.8651 97.8955 15.346C97.6586 14.4252 98.26 13.4492 99.1913 13.5574C100.016 13.6656 100.395 14.4436 99.9932 15.2562C99.5563 16.1791 100.65 16.5935 101.782 16.5935C102.676 16.5935 103.788 16.1055 103.788 15.2378C103.788 14.2169 102.165 13.7922 100.491 13.2491C98.8186 12.706 97.9675 11.6382 97.9675 10.2293C97.9675 7.71591 100.195 7.06458 102 7.04828C103.735 7.0299 105.377 7.60772 105.686 8.91034C105.906 9.81484 105.303 10.8092 104.374 10.6826C103.57 10.5907 103.168 9.81484 103.57 9.00019C104.281 7.53624 100.23 7.68123 100.23 9.20436C100.23 9.85569 100.485 9.87407 103.788 11.0848C105.431 11.6769 106.162 12.9429 106.162 14.2618Z" fill="#213786"/>
<path d="M118.077 15.0394C117.694 16.6728 116.841 17.463 115.213 17.463C114.082 17.463 113.243 16.6851 112.988 15.654C112.094 16.7197 111.107 17.4446 109.757 17.4446C108.078 17.4446 107.111 16.5217 107.111 15.021C107.111 12.2544 111.527 12.0013 112.914 11.5684V10.2086C112.914 7.11735 109.137 7.56856 109.848 9.41432C109.933 9.56983 110.002 9.73332 110.054 9.90233C110.08 10.0566 110.076 10.2146 110.041 10.3673C110.005 10.5199 109.94 10.6642 109.849 10.7918C109.757 10.9195 109.641 11.028 109.508 11.1111C109.374 11.1943 109.225 11.2505 109.069 11.2764C108.826 11.307 108.58 11.2728 108.355 11.1773C108.131 11.0818 107.936 10.9285 107.791 10.7333C107.661 10.5425 107.573 10.3265 107.533 10.0995C107.493 9.87257 107.501 9.63976 107.558 9.41639C108.197 7.04794 112.322 6.41499 114.638 7.89731C115.625 8.53027 116.099 9.63281 116.099 11.062V14.0981C116.099 16.6851 117.43 16.1052 117.978 15.0026L118.077 15.0394ZM112.916 14.9496V12.2177C111.348 12.9241 110.307 13.5387 110.307 14.4432C110.307 15.2925 110.8 15.9071 111.694 15.7989C112.001 15.7622 112.458 15.4375 112.916 14.9496Z" fill="#213786"/>
<path d="M125.138 7.30158C126.992 7.84265 127.895 9.2535 127.895 10.6827C127.895 12.5203 126.397 14.3171 123.314 14.3171C122.861 14.323 122.409 14.2806 121.965 14.1905C120.448 15.1848 121.435 15.7259 121.89 15.7994C123.15 16.0036 124.611 15.9627 125.503 16.0342C127.384 16.1791 128.606 16.8305 128.678 18.4578C128.806 20.8609 126.088 22.0002 123.187 22.0002C119.775 22.0002 118.825 20.9344 118.644 20.1381C118.369 19.054 118.989 18.078 119.921 18.1495C120.08 18.1575 120.235 18.1968 120.378 18.265C120.521 18.3333 120.649 18.4292 120.755 18.5471C120.86 18.6649 120.941 18.8024 120.991 18.9515C121.043 19.1006 121.063 19.2583 121.052 19.4153C121.028 19.5903 120.979 19.7608 120.906 19.9217C120.632 20.5179 120.759 21.6041 123.296 21.6041C125.303 21.6041 126.58 20.2831 126.525 19.4705C126.434 18.2209 124.627 18.4026 123.277 18.3475C122.019 18.2944 120.541 18.3312 119.568 17.6615C119.327 17.5062 119.135 17.2861 119.015 17.027C118.895 16.7677 118.852 16.4801 118.891 16.1975C119.018 15.293 120.022 14.4967 121.007 13.9005C119.511 13.2492 118.8 12.0017 118.8 10.6991C118.8 8.86147 120.277 7.06471 123.362 7.06471C123.803 7.0588 124.243 7.10125 124.675 7.19132C125.705 6.14391 126.902 5.61914 127.831 5.61914C129.053 5.61914 129.675 6.88505 128.944 7.64456C128.379 8.20401 127.501 8.05294 127.157 7.24645C126.927 6.79519 126.269 6.30722 125.138 7.30158ZM124.726 10.6827C124.726 9.0187 124.343 7.96921 123.358 7.96921C122.373 7.96921 121.988 8.9901 121.988 10.6643C121.988 12.3386 122.371 13.4126 123.358 13.4126C124.345 13.4126 124.72 12.3631 124.72 10.6827H124.726Z" fill="#213786"/>
<path d="M138.671 11.8036H132.473C132.473 14.1353 133.659 15.8361 135.594 15.7626C136.625 15.7258 137.62 15.3542 138.24 14.2435L138.405 14.317C137.729 16.2322 136.068 17.4266 134.284 17.4266C131.382 17.4266 129.267 15.2746 129.267 12.363C129.267 9.56172 131.345 7.08301 134.374 7.08301C137.022 7.08301 138.751 9.09005 138.671 11.8036ZM136.062 11.0788C136.062 9.21666 135.277 8.01611 134.292 8.01611C133.307 8.01611 132.522 9.22689 132.522 11.0788H136.062Z" fill="#213786"/>
<path d="M145.51 4.40203C145.005 4.40233 144.505 4.30396 144.038 4.11262C143.571 3.92127 143.147 3.64067 142.79 3.28686C142.433 2.93305 142.149 2.51296 141.956 2.05058C141.762 1.58821 141.663 1.09261 141.663 0.592111C141.663 0.393811 141.679 0.195823 141.711 0H141.171C141.2 0.195993 141.215 0.393903 141.216 0.592111C141.216 1.60257 140.811 2.57164 140.09 3.28614C139.369 4.00064 138.391 4.40203 137.371 4.40203C137.114 4.40302 136.857 4.3777 136.604 4.32649V4.96557C136.799 4.93684 136.997 4.92252 137.194 4.92269C137.768 4.92209 138.336 5.04922 138.855 5.29462C139.373 5.54007 139.829 5.89764 140.19 6.34096C140.55 6.78428 140.806 7.3021 140.938 7.85629C141.07 8.41047 141.075 8.98691 140.952 9.54321H141.762C141.627 8.9273 141.649 8.288 141.825 7.6824C142.001 7.0768 142.325 6.52378 142.769 6.07278C143.213 5.62178 143.763 5.28682 144.37 5.09787C144.977 4.90898 145.621 4.87192 146.246 4.99007V4.33465C146.003 4.38054 145.757 4.40311 145.51 4.40203Z" fill="#213786"/>
<path d="M46.0188 15.8706V7.20947L41.9141 7.8608L41.9862 8.29567C42.089 8.28126 42.1938 8.28855 42.2936 8.31711C42.3933 8.34566 42.4859 8.3948 42.5651 8.46136C42.6443 8.52792 42.7084 8.61031 42.7532 8.70314C42.798 8.79602 42.8224 8.89722 42.8248 9.0001V15.8706C42.826 15.9895 42.8031 16.1075 42.7578 16.2176C42.7125 16.3277 42.6454 16.4277 42.5607 16.5119C42.4759 16.5961 42.3751 16.6627 42.2641 16.7079C42.1531 16.7531 42.0341 16.7759 41.9141 16.7751V17.2264H46.9316V16.7751C46.8112 16.7762 46.6922 16.7536 46.5809 16.7085C46.4696 16.6634 46.3686 16.5968 46.2837 16.5126C46.1987 16.4284 46.1314 16.3283 46.0857 16.218C46.0404 16.1078 46.0175 15.9897 46.0188 15.8706Z" fill="#213786"/>
<path d="M46.491 3.3222C45.9756 3.3222 45.4808 3.11914 45.1158 2.75767C44.7509 2.39621 44.546 1.90596 44.546 1.39478C44.5464 1.29499 44.5537 1.19536 44.5688 1.09668H44.301C44.3161 1.19536 44.3234 1.29499 44.3234 1.39478C44.3234 1.90596 44.1185 2.39621 43.754 2.75767C43.389 3.11914 42.8943 3.3222 42.3785 3.3222C42.249 3.32286 42.1199 3.30985 41.9932 3.28341V3.606C42.0913 3.59127 42.1905 3.58376 42.2899 3.58355C42.5802 3.58388 42.8667 3.64868 43.1284 3.77318C43.3903 3.89767 43.6203 4.0787 43.8023 4.30296C43.9839 4.52719 44.1129 4.78899 44.1793 5.06908C44.2457 5.34913 44.2479 5.64035 44.1854 5.92134H44.5977C44.5292 5.60989 44.5399 5.28649 44.6284 4.98009C44.7172 4.67364 44.8812 4.39381 45.1055 4.1656C45.3302 3.93738 45.6085 3.76793 45.9152 3.67241C46.2223 3.57689 46.5484 3.55828 46.8642 3.61826V3.28749C46.7412 3.31084 46.6166 3.32246 46.491 3.3222Z" fill="#213786"/>
</g>
<defs>
<clipPath id="clip0_0_1456">
<rect width="146.235" height="22" fill="white"/>
</clipPath>
</defs>
</svg>
