<svg width="12" height="17" viewBox="0 0 12 17" fill="none" xmlns="http://www.w3.org/2000/svg">
<path d="M0.471981 0.0277392C0.408493 0.0476878 0.295046 0.127829 0.214904 0.204675C-0.0721818 0.495057 -0.0721817 0.915712 0.2182 1.20627C0.358361 1.34643 0.49193 1.38979 0.829148 1.41668L1.1263 1.43663L1.14295 2.24117C1.1596 3.1359 1.21632 3.51978 1.40662 4.05718C1.72371 4.96528 2.17785 5.5561 3.34614 6.59429C4.15414 7.30863 4.36126 7.53899 4.53473 7.90292C4.64817 8.14005 4.65494 8.17006 4.65494 8.50381C4.65494 8.83756 4.64817 8.86774 4.53473 9.10469C4.37774 9.43515 4.15744 9.69222 3.66341 10.1295C2.83546 10.8607 2.54507 11.141 2.31141 11.4114C1.72389 12.1091 1.40332 12.7568 1.22638 13.608C1.17625 13.8551 1.1563 14.1189 1.14295 14.7531L1.123 15.581H0.969482C0.485338 15.581 0.22167 15.7079 0.0782134 16.005C0.00136791 16.1552 -0.00851969 16.2119 0.00813304 16.3689C0.031551 16.596 0.144998 16.7795 0.338586 16.9065L0.478746 17H5.67319H10.8676L11.0078 16.9065C11.2014 16.7797 11.315 16.596 11.3382 16.3689C11.3549 16.2121 11.345 16.1552 11.2682 16.005C11.1247 15.7079 10.8609 15.581 10.3769 15.581H10.2234L10.2034 14.7531C10.1833 13.8485 10.1399 13.5479 9.94964 12.9837C9.6492 12.0824 9.17841 11.4614 8.01012 10.4232C7.08208 9.59855 6.88849 9.37166 6.74156 8.94094C6.65136 8.67381 6.65136 8.33329 6.74486 8.06286C6.88832 7.63561 7.16222 7.32181 8.16034 6.44373C9.17182 5.55575 9.65597 4.89814 9.94964 4.02336C10.1399 3.45924 10.1833 3.15533 10.2034 2.2573L10.2234 1.43611L10.5172 1.41616C10.8645 1.38945 10.9913 1.34279 11.1382 1.19239C11.4553 0.865234 11.3953 0.354377 11.008 0.100769L10.8678 0.00727057L5.72679 0.000504719C2.505 -0.0024442 0.542061 0.00761716 0.471981 0.0277392ZM9.63584 2.2344C9.61919 2.94214 9.60913 3.08907 9.53575 3.3961C9.3923 4.00375 9.2053 4.41764 8.86808 4.88167C8.5777 5.2822 8.34734 5.51933 7.6396 6.15369C6.86177 6.84478 6.63471 7.08173 6.42447 7.41895C6.18404 7.80613 6.12402 8.01654 6.12402 8.50398C6.12402 8.87121 6.13409 8.95135 6.21076 9.1583C6.39099 9.65233 6.70149 10.0296 7.50273 10.7306C8.66443 11.7421 9.13852 12.3464 9.40895 13.1609C9.58918 13.705 9.61589 13.9019 9.63602 14.7699L9.65596 15.5812H5.67665H1.70047V14.9536C1.70047 14.2391 1.73377 13.892 1.85069 13.4514C2.09441 12.53 2.54178 11.8824 3.56332 10.9844C4.60498 10.0697 4.95209 9.66568 5.13579 9.16159C5.20916 8.95135 5.22252 8.87121 5.21923 8.50398C5.21923 8.15688 5.20916 8.05002 5.14585 7.87638C4.96562 7.37229 4.64505 6.97835 3.84728 6.28067C2.50188 5.10561 2.07134 4.49466 1.81079 3.39628C1.74071 3.09254 1.72735 2.93885 1.7107 2.23457L1.69075 1.42674H5.67336H9.65596L9.63584 2.2344Z" fill="#11346F"/>
<path d="M2.13477 3.54652C2.13477 3.60653 2.35507 4.14411 2.45533 4.32763C2.73236 4.83173 3.04616 5.1823 3.92095 5.96342C4.80562 6.7513 5.05264 7.02833 5.29965 7.51906C5.42316 7.76608 5.47 7.93295 5.51995 8.30018C5.56003 8.60409 5.61675 8.691 5.7302 8.61745C5.77356 8.59073 5.80028 8.49724 5.83029 8.28023C5.9472 7.40891 6.22752 7.01497 7.57952 5.82326C8.47079 5.03867 8.85484 4.54134 9.11192 3.8336C9.16864 3.68338 9.21201 3.55311 9.21201 3.54652C9.21201 3.53645 7.61959 3.52986 5.6733 3.52986C3.72701 3.52986 2.13477 3.53645 2.13477 3.54652Z" fill="#197AFD"/>
<path d="M5.60592 8.89458C5.39221 8.97143 5.4524 9.30518 5.6793 9.30518C5.82622 9.30518 5.92961 9.10829 5.84617 8.98478C5.82275 8.95148 5.68919 8.86787 5.66594 8.87463C5.65935 8.87446 5.63264 8.88452 5.60592 8.89458Z" fill="#197AFD"/>
<path d="M5.88002 9.47502C5.70309 9.5418 5.70968 9.81224 5.89008 9.8589C6.08714 9.90903 6.23736 9.72204 6.13051 9.55846C6.07031 9.46513 5.98358 9.43842 5.88002 9.47502Z" fill="#197AFD"/>
<path d="M5.25913 9.94245C5.15557 10.0259 5.14568 10.1461 5.239 10.2396C5.36928 10.3699 5.60623 10.2764 5.60623 10.0927C5.60623 10.0092 5.46937 9.87237 5.38923 9.87237C5.36581 9.87237 5.30908 9.90238 5.25913 9.94245Z" fill="#197AFD"/>
<path d="M5.88002 10.6103C5.70309 10.6771 5.70968 10.9475 5.89008 10.9942C6.08714 11.0443 6.23736 10.8573 6.13051 10.6937C6.07031 10.6002 5.98358 10.5735 5.88002 10.6103Z" fill="#197AFD"/>
<path d="M5.22628 11.3812C5.19627 11.4213 5.17285 11.478 5.17285 11.508C5.17285 11.538 5.19627 11.5948 5.22628 11.6348C5.30312 11.7483 5.5033 11.725 5.57338 11.5981C5.61675 11.5179 5.61675 11.498 5.57338 11.4145C5.5033 11.2912 5.30312 11.2678 5.22628 11.3812Z" fill="#197AFD"/>
<path d="M5.80604 12.0761C5.76927 12.1129 5.73926 12.1729 5.73926 12.2097C5.73926 12.2898 5.87942 12.4434 5.9495 12.4434C6.03623 12.4434 6.1731 12.3065 6.1731 12.2231C6.1731 12.1195 6.06295 12.0093 5.95609 12.0093C5.90943 12.0095 5.84264 12.0395 5.80604 12.0761Z" fill="#197AFD"/>
<path d="M4.95938 12.64C4.87264 12.7368 4.89918 12.9138 5.0161 12.9772C5.09624 13.0206 5.11619 13.0206 5.19963 12.9772C5.38315 12.8739 5.31307 12.5767 5.10613 12.5767C5.05617 12.5765 4.98939 12.6065 4.95938 12.64Z" fill="#197AFD"/>
<path d="M5.48972 12.8903C5.26942 13.0005 2.15137 15.2004 2.15137 15.2472C2.15137 15.2906 2.56526 15.2974 5.67342 15.2974C8.77482 15.2974 9.19547 15.2906 9.19547 15.2472C9.19547 15.2205 8.59459 14.7799 7.82336 14.2456C6.53138 13.3509 6.45801 13.2942 6.55133 13.2708C6.73156 13.234 6.79176 13.0805 6.68161 12.9436C6.54804 12.78 6.2776 12.9103 6.32114 13.1172C6.34109 13.2107 6.3378 13.2107 6.08748 13.0406C5.80699 12.8537 5.65 12.8137 5.48972 12.8903Z" fill="#197AFD"/>
</svg>
