<svg width="19" height="19" viewBox="0 0 19 19" fill="none" xmlns="http://www.w3.org/2000/svg">
<path d="M9.49998 1.5835C5.1379 1.5835 1.58331 5.13808 1.58331 9.50016C1.58331 13.8622 5.1379 17.4168 9.49998 17.4168C13.8621 17.4168 17.4166 13.8622 17.4166 9.50016C17.4166 5.13808 13.8621 1.5835 9.49998 1.5835ZM13.2841 7.67933L8.7954 12.1681C8.68456 12.2789 8.53415 12.3422 8.37581 12.3422C8.21748 12.3422 8.06706 12.2789 7.95623 12.1681L5.71581 9.92766C5.48623 9.69808 5.48623 9.31808 5.71581 9.0885C5.9454 8.85891 6.3254 8.85891 6.55498 9.0885L8.37581 10.9093L12.445 6.84016C12.6746 6.61058 13.0546 6.61058 13.2841 6.84016C13.5137 7.06975 13.5137 7.44183 13.2841 7.67933Z" fill="#197AFF"/>
</svg>
